<?xml version="1.0" encoding="utf-8"?>
<!-- Generator: Adobe Illustrator 24.2.3, SVG Export Plug-In . SVG Version: 6.00 Build 0)  -->
<svg version="1.1" id="Calque_1" xmlns="http://www.w3.org/2000/svg" xmlns:xlink="http://www.w3.org/1999/xlink" x="0px" y="0px"
	 viewBox="0 0 160 45" style="enable-background:new 0 0 160 45;" xml:space="preserve">
<style type="text/css">
	.st0{fill:#FFFFFF;}
</style>
<g>
	<path class="st0" d="M36.85,43.67c-0.25-0.27-0.38-0.57-0.38-0.91V27.84L25.98,41.89c-0.25,0.33-0.58,0.5-1,0.5
		c-0.42,0-0.75-0.17-1-0.5L13.49,27.84v14.93c0,0.33-0.13,0.64-0.37,0.91c-0.25,0.27-0.56,0.4-0.94,0.4H4.25
		c-0.33,0-0.62-0.14-0.87-0.4C3.13,43.4,3,43.1,3,42.77V1.67C3,1.09,3.29,0.7,3.87,0.52c0.58-0.19,1.06-0.05,1.44,0.41
		c3.29,4.41,6.57,8.8,9.84,13.15c3.27,4.35,6.55,8.73,9.84,13.15c3.29-4.41,6.57-8.79,9.84-13.15c3.27-4.35,6.55-8.73,9.84-13.15
		c0.37-0.46,0.85-0.59,1.44-0.41c0.58,0.19,0.87,0.57,0.87,1.16v41.09c0,0.33-0.13,0.64-0.38,0.91c-0.25,0.27-0.56,0.4-0.94,0.4
		h-7.93C37.39,44.08,37.1,43.94,36.85,43.67z"/>
	<path class="st0" d="M60.08,41.77c-2.58-1.62-4.71-3.63-6.4-6.03c-1.69-2.39-2.86-4.97-3.53-7.74c-0.67-2.77-0.81-5.61-0.44-8.52
		c0.37-2.91,1.31-5.68,2.81-8.31c1.5-2.66,3.42-4.88,5.78-6.65c2.35-1.77,4.88-3.03,7.59-3.78c2.71-0.75,5.52-0.93,8.43-0.53
		c2.91,0.4,5.68,1.41,8.31,3.03c2.58,1.62,4.71,3.63,6.37,6.03c1.66,2.39,2.83,4.98,3.5,7.74c0.67,2.77,0.82,5.61,0.47,8.52
		c-0.35,2.92-1.28,5.68-2.78,8.31c-1.5,2.66-3.42,4.88-5.78,6.65c-2.35,1.77-4.88,3.03-7.59,3.78c-2.71,0.75-5.52,0.93-8.43,0.53
		C65.47,44.4,62.7,43.39,60.08,41.77z M60.33,16.41c-0.79,1.54-1.27,3.14-1.44,4.81c-0.17,1.67-0.03,3.28,0.41,4.84
		c0.44,1.56,1.16,3.02,2.19,4.37c1.02,1.35,2.28,2.47,3.78,3.34c1.54,0.87,3.14,1.4,4.81,1.56c1.66,0.17,3.28,0.01,4.84-0.47
		c1.56-0.48,2.99-1.25,4.28-2.31c1.29-1.06,2.35-2.38,3.19-3.97c0.79-1.54,1.26-3.14,1.41-4.81c0.15-1.66,0-3.29-0.44-4.87
		c-0.44-1.58-1.16-3.04-2.15-4.37c-1-1.33-2.27-2.44-3.81-3.31c-1.54-0.87-3.14-1.39-4.81-1.56c-1.67-0.17-3.27-0.01-4.81,0.47
		c-1.54,0.48-2.97,1.26-4.28,2.34C62.17,13.56,61.12,14.87,60.33,16.41z"/>
	<path class="st0" d="M96.05,43.7c-0.25-0.25-0.37-0.56-0.37-0.94V1.67c0-0.33,0.12-0.62,0.37-0.87c0.25-0.25,0.54-0.37,0.87-0.37
		h24.42c0.33,0,0.62,0.12,0.87,0.37s0.37,0.54,0.37,0.87v6.68c0,0.33-0.12,0.62-0.37,0.87c-0.25,0.25-0.54,0.37-0.87,0.37h-15.17
		v13.24h10.18c0.33,0,0.62,0.13,0.87,0.38c0.25,0.25,0.37,0.54,0.37,0.87v6.68c0,0.33-0.12,0.62-0.37,0.87
		c-0.25,0.25-0.54,0.37-0.87,0.37h-10.18v10.74c0,0.37-0.13,0.69-0.38,0.94c-0.25,0.25-0.54,0.37-0.87,0.37h-7.99
		C96.59,44.08,96.3,43.95,96.05,43.7z"/>
	<path class="st0" d="M156.94,42.39c0.12,0.42,0.06,0.8-0.19,1.16c-0.25,0.35-0.58,0.53-1,0.53h-7.24c-0.58,0-1-0.29-1.25-0.87
		c-0.46-1.46-0.91-2.89-1.34-4.31c-0.44-1.41-0.89-2.83-1.34-4.25h-12.55c-0.46,1.42-0.91,2.83-1.34,4.25
		c-0.44,1.42-0.89,2.85-1.34,4.31c-0.25,0.58-0.67,0.87-1.25,0.87h-7.24c-0.42,0-0.75-0.18-1-0.53c-0.25-0.35-0.31-0.74-0.19-1.16
		c2.21-6.87,4.39-13.72,6.56-20.55c2.17-6.83,4.35-13.68,6.56-20.55c0.17-0.58,0.56-0.87,1.19-0.87h8.68c0.62,0,1.02,0.29,1.19,0.87
		c2.21,6.87,4.39,13.72,6.56,20.55C152.54,28.67,154.73,35.52,156.94,42.39z M141.64,25.47l-3.37-10.55l-3.31,10.55H141.64z"/>
</g>
</svg>
